<svg xmlns="http://www.w3.org/2000/svg" viewBox="0 0 48 48">
  <circle cx="24" cy="22" r="11" fill="#FFC72C"/>
  <g stroke="#FFC72C" stroke-width="2.5" stroke-linecap="round">
    <line x1="24" y1="3" x2="24" y2="7"/>
    <line x1="5" y1="22" x2="9" y2="22"/>
    <line x1="39" y1="22" x2="43" y2="22"/>
    <line x1="10.5" y1="8.5" x2="13.2" y2="11.2"/>
    <line x1="34.8" y1="11.2" x2="37.5" y2="8.5"/>
  </g>
  <g fill="#0D1B2A">
    <rect x="22.5" y="14" width="3" height="24" rx="0.5"/>
    <path d="M21 22 Q24 19 27 22 L26 26 Q24 28 22 26 Z"/>
    <rect x="21" y="12" width="6" height="2" rx="0.5"/>
    <rect x="23.3" y="6" width="1.4" height="6"/>
    <rect x="8" y="28" width="6" height="12"/>
    <rect x="14.5" y="24" width="4.5" height="16"/>
    <rect x="28.5" y="26" width="5.5" height="14"/>
    <rect x="34.5" y="30" width="5.5" height="10"/>
  </g>
  <rect x="4" y="39" width="40" height="2" fill="#0D1B2A"/>
</svg>
